<mxfile host="app.diagrams.net" agent="Mozilla/5.0 (Macintosh; Intel Mac OS X 10_15_7) AppleWebKit/537.36 (KHTML, like Gecko) Chrome/129.0.0.0 Safari/537.36" version="24.7.17">
  <diagram name="ページ1" id="RXQ_MCHYcWRbRbya9VPW">
    <mxGraphModel dx="954" dy="581" grid="1" gridSize="10" guides="1" tooltips="1" connect="1" arrows="1" fold="1" page="1" pageScale="1" pageWidth="827" pageHeight="1169" math="0" shadow="0">
      <root>
        <mxCell id="0" />
        <mxCell id="1" parent="0" />
        <mxCell id="tzBdefzeKCWXPKmRNhvX-1" value="(1,1)" style="rounded=0;whiteSpace=wrap;html=1;fillColor=#FF3333;strokeColor=#FFFFFF;fontColor=#FFFFFF;" parent="1" vertex="1">
          <mxGeometry x="80" y="80" width="40" height="40" as="geometry" />
        </mxCell>
        <mxCell id="tzBdefzeKCWXPKmRNhvX-3" value="(1,2)" style="rounded=0;whiteSpace=wrap;html=1;fillColor=#FF3333;strokeColor=#FFFFFF;fontColor=#FFFFFF;" parent="1" vertex="1">
          <mxGeometry x="120" y="80" width="40" height="40" as="geometry" />
        </mxCell>
        <mxCell id="tzBdefzeKCWXPKmRNhvX-4" value="(1,3)" style="rounded=0;whiteSpace=wrap;html=1;fillColor=#FF3333;strokeColor=#FFFFFF;fontColor=#FFFFFF;" parent="1" vertex="1">
          <mxGeometry x="160" y="80" width="40" height="40" as="geometry" />
        </mxCell>
        <mxCell id="tzBdefzeKCWXPKmRNhvX-5" value="(1,4)" style="rounded=0;whiteSpace=wrap;html=1;fillColor=#FF3333;strokeColor=#FFFFFF;fontColor=#FFFFFF;" parent="1" vertex="1">
          <mxGeometry x="200" y="80" width="40" height="40" as="geometry" />
        </mxCell>
        <mxCell id="tzBdefzeKCWXPKmRNhvX-8" value="(2,1)" style="rounded=0;whiteSpace=wrap;html=1;fillColor=#009900;strokeColor=#FFFFFF;fontColor=#FFFFFF;" parent="1" vertex="1">
          <mxGeometry x="80" y="120" width="40" height="40" as="geometry" />
        </mxCell>
        <mxCell id="tzBdefzeKCWXPKmRNhvX-9" value="(2,2)" style="rounded=0;whiteSpace=wrap;html=1;fillColor=#009900;strokeColor=#FFFFFF;fontColor=#FFFFFF;" parent="1" vertex="1">
          <mxGeometry x="120" y="120" width="40" height="40" as="geometry" />
        </mxCell>
        <mxCell id="tzBdefzeKCWXPKmRNhvX-10" value="(2,3)" style="rounded=0;whiteSpace=wrap;html=1;fillColor=#009900;strokeColor=#FFFFFF;fontColor=#FFFFFF;" parent="1" vertex="1">
          <mxGeometry x="160" y="120" width="40" height="40" as="geometry" />
        </mxCell>
        <mxCell id="tzBdefzeKCWXPKmRNhvX-11" value="(2,4)" style="rounded=0;whiteSpace=wrap;html=1;fillColor=#009900;strokeColor=#FFFFFF;fontColor=#FFFFFF;" parent="1" vertex="1">
          <mxGeometry x="200" y="120" width="40" height="40" as="geometry" />
        </mxCell>
        <mxCell id="tzBdefzeKCWXPKmRNhvX-12" value="(3,1)" style="rounded=0;whiteSpace=wrap;html=1;fillColor=#007FFF;strokeColor=#FFFFFF;fontColor=#FFFFFF;" parent="1" vertex="1">
          <mxGeometry x="80" y="160" width="40" height="40" as="geometry" />
        </mxCell>
        <mxCell id="tzBdefzeKCWXPKmRNhvX-13" value="(3,2)" style="rounded=0;whiteSpace=wrap;html=1;fillColor=#007FFF;strokeColor=#FFFFFF;fontColor=#FFFFFF;" parent="1" vertex="1">
          <mxGeometry x="120" y="160" width="40" height="40" as="geometry" />
        </mxCell>
        <mxCell id="tzBdefzeKCWXPKmRNhvX-14" value="(3,3)" style="rounded=0;whiteSpace=wrap;html=1;fillColor=#007FFF;strokeColor=#FFFFFF;fontColor=#FFFFFF;" parent="1" vertex="1">
          <mxGeometry x="160" y="160" width="40" height="40" as="geometry" />
        </mxCell>
        <mxCell id="tzBdefzeKCWXPKmRNhvX-15" value="(3,4)" style="rounded=0;whiteSpace=wrap;html=1;fillColor=#007FFF;strokeColor=#FFFFFF;fontColor=#FFFFFF;" parent="1" vertex="1">
          <mxGeometry x="200" y="160" width="40" height="40" as="geometry" />
        </mxCell>
        <mxCell id="tzBdefzeKCWXPKmRNhvX-16" value="(4,1)" style="rounded=0;whiteSpace=wrap;html=1;fillColor=#FF0080;strokeColor=#FFFFFF;fontColor=#FFFFFF;" parent="1" vertex="1">
          <mxGeometry x="80" y="200" width="40" height="40" as="geometry" />
        </mxCell>
        <mxCell id="tzBdefzeKCWXPKmRNhvX-17" value="(4,2)" style="rounded=0;whiteSpace=wrap;html=1;fillColor=#FF0080;strokeColor=#FFFFFF;fontColor=#FFFFFF;" parent="1" vertex="1">
          <mxGeometry x="120" y="200" width="40" height="40" as="geometry" />
        </mxCell>
        <mxCell id="tzBdefzeKCWXPKmRNhvX-18" value="(4,3)" style="rounded=0;whiteSpace=wrap;html=1;fillColor=#FF0080;strokeColor=#FFFFFF;fontColor=#FFFFFF;" parent="1" vertex="1">
          <mxGeometry x="160" y="200" width="40" height="40" as="geometry" />
        </mxCell>
        <mxCell id="tzBdefzeKCWXPKmRNhvX-19" value="(4,4)" style="rounded=0;whiteSpace=wrap;html=1;fillColor=#FF0080;strokeColor=#FFFFFF;fontColor=#FFFFFF;" parent="1" vertex="1">
          <mxGeometry x="200" y="200" width="40" height="40" as="geometry" />
        </mxCell>
        <mxCell id="tzBdefzeKCWXPKmRNhvX-20" value="(1,1)" style="rounded=0;whiteSpace=wrap;html=1;fillColor=#000000;strokeColor=#FFFFFF;fontColor=#FFFFFF;" parent="1" vertex="1">
          <mxGeometry x="320" y="80" width="40" height="40" as="geometry" />
        </mxCell>
        <mxCell id="tzBdefzeKCWXPKmRNhvX-84" value="(1,2)" style="rounded=0;whiteSpace=wrap;html=1;fillColor=#000000;strokeColor=#FFFFFF;fontColor=#FFFFFF;" parent="1" vertex="1">
          <mxGeometry x="360" y="80" width="40" height="40" as="geometry" />
        </mxCell>
        <mxCell id="tzBdefzeKCWXPKmRNhvX-85" value="(1,3)" style="rounded=0;whiteSpace=wrap;html=1;fillColor=#000000;strokeColor=#FFFFFF;fontColor=#FFFFFF;" parent="1" vertex="1">
          <mxGeometry x="400" y="80" width="40" height="40" as="geometry" />
        </mxCell>
        <mxCell id="tzBdefzeKCWXPKmRNhvX-86" value="(1,4)" style="rounded=0;whiteSpace=wrap;html=1;fillColor=#000000;strokeColor=#FFFFFF;fontColor=#FFFFFF;" parent="1" vertex="1">
          <mxGeometry x="440" y="80" width="40" height="40" as="geometry" />
        </mxCell>
        <mxCell id="tzBdefzeKCWXPKmRNhvX-87" value="(1,5)" style="rounded=0;whiteSpace=wrap;html=1;fillColor=#000000;strokeColor=#FFFFFF;fontColor=#FFFFFF;" parent="1" vertex="1">
          <mxGeometry x="480" y="80" width="40" height="40" as="geometry" />
        </mxCell>
        <mxCell id="tzBdefzeKCWXPKmRNhvX-88" value="(1,6)" style="rounded=0;whiteSpace=wrap;html=1;fillColor=#000000;strokeColor=#FFFFFF;fontColor=#FFFFFF;" parent="1" vertex="1">
          <mxGeometry x="520" y="80" width="40" height="40" as="geometry" />
        </mxCell>
        <mxCell id="tzBdefzeKCWXPKmRNhvX-89" value="(1,7)" style="rounded=0;whiteSpace=wrap;html=1;fillColor=#000000;strokeColor=#FFFFFF;fontColor=#FFFFFF;" parent="1" vertex="1">
          <mxGeometry x="560" y="80" width="40" height="40" as="geometry" />
        </mxCell>
        <mxCell id="tzBdefzeKCWXPKmRNhvX-90" value="(1,8)" style="rounded=0;whiteSpace=wrap;html=1;fillColor=#000000;strokeColor=#FFFFFF;fontColor=#FFFFFF;" parent="1" vertex="1">
          <mxGeometry x="600" y="80" width="40" height="40" as="geometry" />
        </mxCell>
        <mxCell id="tzBdefzeKCWXPKmRNhvX-91" value="(2,1)" style="rounded=0;whiteSpace=wrap;html=1;fillColor=#000000;strokeColor=#FFFFFF;fontColor=#FFFFFF;" parent="1" vertex="1">
          <mxGeometry x="320" y="120" width="40" height="40" as="geometry" />
        </mxCell>
        <mxCell id="tzBdefzeKCWXPKmRNhvX-92" value="(2,2)" style="rounded=0;whiteSpace=wrap;html=1;fillColor=#FF3333;strokeColor=#FFFFFF;fontColor=#FFFFFF;" parent="1" vertex="1">
          <mxGeometry x="360" y="120" width="40" height="40" as="geometry" />
        </mxCell>
        <mxCell id="tzBdefzeKCWXPKmRNhvX-93" value="(2,3)" style="rounded=0;whiteSpace=wrap;html=1;fillColor=#000000;strokeColor=#FFFFFF;fontColor=#FFFFFF;" parent="1" vertex="1">
          <mxGeometry x="400" y="120" width="40" height="40" as="geometry" />
        </mxCell>
        <mxCell id="tzBdefzeKCWXPKmRNhvX-94" value="(2,4)" style="rounded=0;whiteSpace=wrap;html=1;fillColor=#FF3333;strokeColor=#FFFFFF;fontColor=#FFFFFF;" parent="1" vertex="1">
          <mxGeometry x="440" y="120" width="40" height="40" as="geometry" />
        </mxCell>
        <mxCell id="tzBdefzeKCWXPKmRNhvX-95" value="(2,5)" style="rounded=0;whiteSpace=wrap;html=1;fillColor=#000000;strokeColor=#FFFFFF;fontColor=#FFFFFF;" parent="1" vertex="1">
          <mxGeometry x="480" y="120" width="40" height="40" as="geometry" />
        </mxCell>
        <mxCell id="tzBdefzeKCWXPKmRNhvX-96" value="(2,6)" style="rounded=0;whiteSpace=wrap;html=1;fillColor=#FF3333;strokeColor=#FFFFFF;fontColor=#FFFFFF;" parent="1" vertex="1">
          <mxGeometry x="520" y="120" width="40" height="40" as="geometry" />
        </mxCell>
        <mxCell id="tzBdefzeKCWXPKmRNhvX-97" value="(2,7)" style="rounded=0;whiteSpace=wrap;html=1;fillColor=#000000;strokeColor=#FFFFFF;fontColor=#FFFFFF;" parent="1" vertex="1">
          <mxGeometry x="560" y="120" width="40" height="40" as="geometry" />
        </mxCell>
        <mxCell id="tzBdefzeKCWXPKmRNhvX-98" value="(2,8)" style="rounded=0;whiteSpace=wrap;html=1;fillColor=#FF3333;strokeColor=#FFFFFF;fontColor=#FFFFFF;" parent="1" vertex="1">
          <mxGeometry x="600" y="120" width="40" height="40" as="geometry" />
        </mxCell>
        <mxCell id="tzBdefzeKCWXPKmRNhvX-99" value="(3,1)" style="rounded=0;whiteSpace=wrap;html=1;fillColor=#000000;strokeColor=#FFFFFF;fontColor=#FFFFFF;" parent="1" vertex="1">
          <mxGeometry x="320" y="160" width="40" height="40" as="geometry" />
        </mxCell>
        <mxCell id="tzBdefzeKCWXPKmRNhvX-100" value="(3,2)" style="rounded=0;whiteSpace=wrap;html=1;fillColor=#000000;strokeColor=#FFFFFF;fontColor=#FFFFFF;" parent="1" vertex="1">
          <mxGeometry x="360" y="160" width="40" height="40" as="geometry" />
        </mxCell>
        <mxCell id="tzBdefzeKCWXPKmRNhvX-101" value="(3,3)" style="rounded=0;whiteSpace=wrap;html=1;fillColor=#000000;strokeColor=#FFFFFF;fontColor=#FFFFFF;" parent="1" vertex="1">
          <mxGeometry x="400" y="160" width="40" height="40" as="geometry" />
        </mxCell>
        <mxCell id="tzBdefzeKCWXPKmRNhvX-102" value="(3,4)" style="rounded=0;whiteSpace=wrap;html=1;fillColor=#000000;strokeColor=#FFFFFF;fontColor=#FFFFFF;" parent="1" vertex="1">
          <mxGeometry x="440" y="160" width="40" height="40" as="geometry" />
        </mxCell>
        <mxCell id="tzBdefzeKCWXPKmRNhvX-103" value="(3,5)" style="rounded=0;whiteSpace=wrap;html=1;fillColor=#000000;strokeColor=#FFFFFF;fontColor=#FFFFFF;" parent="1" vertex="1">
          <mxGeometry x="480" y="160" width="40" height="40" as="geometry" />
        </mxCell>
        <mxCell id="tzBdefzeKCWXPKmRNhvX-104" value="(3,6)" style="rounded=0;whiteSpace=wrap;html=1;fillColor=#000000;strokeColor=#FFFFFF;fontColor=#FFFFFF;" parent="1" vertex="1">
          <mxGeometry x="520" y="160" width="40" height="40" as="geometry" />
        </mxCell>
        <mxCell id="tzBdefzeKCWXPKmRNhvX-105" value="(3,7)" style="rounded=0;whiteSpace=wrap;html=1;fillColor=#000000;strokeColor=#FFFFFF;fontColor=#FFFFFF;" parent="1" vertex="1">
          <mxGeometry x="560" y="160" width="40" height="40" as="geometry" />
        </mxCell>
        <mxCell id="tzBdefzeKCWXPKmRNhvX-106" value="(3,8)" style="rounded=0;whiteSpace=wrap;html=1;fillColor=#000000;strokeColor=#FFFFFF;fontColor=#FFFFFF;" parent="1" vertex="1">
          <mxGeometry x="600" y="160" width="40" height="40" as="geometry" />
        </mxCell>
        <mxCell id="tzBdefzeKCWXPKmRNhvX-107" value="(4,1)" style="rounded=0;whiteSpace=wrap;html=1;fillColor=#000000;strokeColor=#FFFFFF;fontColor=#FFFFFF;" parent="1" vertex="1">
          <mxGeometry x="320" y="200" width="40" height="40" as="geometry" />
        </mxCell>
        <mxCell id="tzBdefzeKCWXPKmRNhvX-108" value="(4,2)" style="rounded=0;whiteSpace=wrap;html=1;fillColor=#4D9900;strokeColor=#FFFFFF;fontColor=#FFFFFF;" parent="1" vertex="1">
          <mxGeometry x="360" y="200" width="40" height="40" as="geometry" />
        </mxCell>
        <mxCell id="tzBdefzeKCWXPKmRNhvX-109" value="(4,3)" style="rounded=0;whiteSpace=wrap;html=1;fillColor=#000000;strokeColor=#FFFFFF;fontColor=#FFFFFF;" parent="1" vertex="1">
          <mxGeometry x="400" y="200" width="40" height="40" as="geometry" />
        </mxCell>
        <mxCell id="tzBdefzeKCWXPKmRNhvX-110" value="(4,4)" style="rounded=0;whiteSpace=wrap;html=1;fillColor=#4D9900;strokeColor=#FFFFFF;fontColor=#FFFFFF;" parent="1" vertex="1">
          <mxGeometry x="440" y="200" width="40" height="40" as="geometry" />
        </mxCell>
        <mxCell id="tzBdefzeKCWXPKmRNhvX-111" value="(4,5)" style="rounded=0;whiteSpace=wrap;html=1;fillColor=#000000;strokeColor=#FFFFFF;fontColor=#FFFFFF;" parent="1" vertex="1">
          <mxGeometry x="480" y="200" width="40" height="40" as="geometry" />
        </mxCell>
        <mxCell id="tzBdefzeKCWXPKmRNhvX-112" value="(4,6)" style="rounded=0;whiteSpace=wrap;html=1;fillColor=#4D9900;strokeColor=#FFFFFF;fontColor=#FFFFFF;" parent="1" vertex="1">
          <mxGeometry x="520" y="200" width="40" height="40" as="geometry" />
        </mxCell>
        <mxCell id="tzBdefzeKCWXPKmRNhvX-113" value="(4,7)" style="rounded=0;whiteSpace=wrap;html=1;fillColor=#000000;strokeColor=#FFFFFF;fontColor=#FFFFFF;" parent="1" vertex="1">
          <mxGeometry x="560" y="200" width="40" height="40" as="geometry" />
        </mxCell>
        <mxCell id="tzBdefzeKCWXPKmRNhvX-114" value="(4,8)" style="rounded=0;whiteSpace=wrap;html=1;fillColor=#4D9900;strokeColor=#FFFFFF;fontColor=#FFFFFF;" parent="1" vertex="1">
          <mxGeometry x="600" y="200" width="40" height="40" as="geometry" />
        </mxCell>
        <mxCell id="tzBdefzeKCWXPKmRNhvX-115" value="(5,1)" style="rounded=0;whiteSpace=wrap;html=1;fillColor=#000000;strokeColor=#FFFFFF;fontColor=#FFFFFF;" parent="1" vertex="1">
          <mxGeometry x="320" y="240" width="40" height="40" as="geometry" />
        </mxCell>
        <mxCell id="tzBdefzeKCWXPKmRNhvX-116" value="(5,2)" style="rounded=0;whiteSpace=wrap;html=1;fillColor=#000000;strokeColor=#FFFFFF;fontColor=#FFFFFF;" parent="1" vertex="1">
          <mxGeometry x="360" y="240" width="40" height="40" as="geometry" />
        </mxCell>
        <mxCell id="tzBdefzeKCWXPKmRNhvX-117" value="(5,3)" style="rounded=0;whiteSpace=wrap;html=1;fillColor=#000000;strokeColor=#FFFFFF;fontColor=#FFFFFF;" parent="1" vertex="1">
          <mxGeometry x="400" y="240" width="40" height="40" as="geometry" />
        </mxCell>
        <mxCell id="tzBdefzeKCWXPKmRNhvX-118" value="(5,4)" style="rounded=0;whiteSpace=wrap;html=1;fillColor=#000000;strokeColor=#FFFFFF;fontColor=#FFFFFF;" parent="1" vertex="1">
          <mxGeometry x="440" y="240" width="40" height="40" as="geometry" />
        </mxCell>
        <mxCell id="tzBdefzeKCWXPKmRNhvX-119" value="(5,5)" style="rounded=0;whiteSpace=wrap;html=1;fillColor=#000000;strokeColor=#FFFFFF;fontColor=#FFFFFF;" parent="1" vertex="1">
          <mxGeometry x="480" y="240" width="40" height="40" as="geometry" />
        </mxCell>
        <mxCell id="tzBdefzeKCWXPKmRNhvX-120" value="(5,6)" style="rounded=0;whiteSpace=wrap;html=1;fillColor=#000000;strokeColor=#FFFFFF;fontColor=#FFFFFF;" parent="1" vertex="1">
          <mxGeometry x="520" y="240" width="40" height="40" as="geometry" />
        </mxCell>
        <mxCell id="tzBdefzeKCWXPKmRNhvX-121" value="(5,7)" style="rounded=0;whiteSpace=wrap;html=1;fillColor=#000000;strokeColor=#FFFFFF;fontColor=#FFFFFF;" parent="1" vertex="1">
          <mxGeometry x="560" y="240" width="40" height="40" as="geometry" />
        </mxCell>
        <mxCell id="tzBdefzeKCWXPKmRNhvX-122" value="(5,8)" style="rounded=0;whiteSpace=wrap;html=1;fillColor=#000000;strokeColor=#FFFFFF;fontColor=#FFFFFF;" parent="1" vertex="1">
          <mxGeometry x="600" y="240" width="40" height="40" as="geometry" />
        </mxCell>
        <mxCell id="tzBdefzeKCWXPKmRNhvX-123" value="(6,1)" style="rounded=0;whiteSpace=wrap;html=1;fillColor=#000000;strokeColor=#FFFFFF;fontColor=#FFFFFF;" parent="1" vertex="1">
          <mxGeometry x="320" y="280" width="40" height="40" as="geometry" />
        </mxCell>
        <mxCell id="tzBdefzeKCWXPKmRNhvX-124" value="(6,2)" style="rounded=0;whiteSpace=wrap;html=1;fillColor=#007FFF;strokeColor=#FFFFFF;fontColor=#FFFFFF;" parent="1" vertex="1">
          <mxGeometry x="360" y="280" width="40" height="40" as="geometry" />
        </mxCell>
        <mxCell id="tzBdefzeKCWXPKmRNhvX-125" value="(6,3)" style="rounded=0;whiteSpace=wrap;html=1;fillColor=#000000;strokeColor=#FFFFFF;fontColor=#FFFFFF;" parent="1" vertex="1">
          <mxGeometry x="400" y="280" width="40" height="40" as="geometry" />
        </mxCell>
        <mxCell id="tzBdefzeKCWXPKmRNhvX-126" value="(6,4)" style="rounded=0;whiteSpace=wrap;html=1;fillColor=#007FFF;strokeColor=#FFFFFF;fontColor=#FFFFFF;" parent="1" vertex="1">
          <mxGeometry x="440" y="280" width="40" height="40" as="geometry" />
        </mxCell>
        <mxCell id="tzBdefzeKCWXPKmRNhvX-127" value="(6,5)" style="rounded=0;whiteSpace=wrap;html=1;fillColor=#000000;strokeColor=#FFFFFF;fontColor=#FFFFFF;" parent="1" vertex="1">
          <mxGeometry x="480" y="280" width="40" height="40" as="geometry" />
        </mxCell>
        <mxCell id="tzBdefzeKCWXPKmRNhvX-128" value="(6,6)" style="rounded=0;whiteSpace=wrap;html=1;fillColor=#007FFF;strokeColor=#FFFFFF;fontColor=#FFFFFF;" parent="1" vertex="1">
          <mxGeometry x="520" y="280" width="40" height="40" as="geometry" />
        </mxCell>
        <mxCell id="tzBdefzeKCWXPKmRNhvX-129" value="(6,7)" style="rounded=0;whiteSpace=wrap;html=1;fillColor=#000000;strokeColor=#FFFFFF;fontColor=#FFFFFF;" parent="1" vertex="1">
          <mxGeometry x="560" y="280" width="40" height="40" as="geometry" />
        </mxCell>
        <mxCell id="tzBdefzeKCWXPKmRNhvX-130" value="(6,8)" style="rounded=0;whiteSpace=wrap;html=1;fillColor=#007FFF;strokeColor=#FFFFFF;fontColor=#FFFFFF;" parent="1" vertex="1">
          <mxGeometry x="600" y="280" width="40" height="40" as="geometry" />
        </mxCell>
        <mxCell id="tzBdefzeKCWXPKmRNhvX-131" value="(7,1)" style="rounded=0;whiteSpace=wrap;html=1;fillColor=#000000;strokeColor=#FFFFFF;fontColor=#FFFFFF;" parent="1" vertex="1">
          <mxGeometry x="320" y="320" width="40" height="40" as="geometry" />
        </mxCell>
        <mxCell id="tzBdefzeKCWXPKmRNhvX-132" value="(7,2)" style="rounded=0;whiteSpace=wrap;html=1;fillColor=#000000;strokeColor=#FFFFFF;fontColor=#FFFFFF;" parent="1" vertex="1">
          <mxGeometry x="360" y="320" width="40" height="40" as="geometry" />
        </mxCell>
        <mxCell id="tzBdefzeKCWXPKmRNhvX-133" value="(7,3)" style="rounded=0;whiteSpace=wrap;html=1;fillColor=#000000;strokeColor=#FFFFFF;fontColor=#FFFFFF;" parent="1" vertex="1">
          <mxGeometry x="400" y="320" width="40" height="40" as="geometry" />
        </mxCell>
        <mxCell id="tzBdefzeKCWXPKmRNhvX-134" value="(7,4)" style="rounded=0;whiteSpace=wrap;html=1;fillColor=#000000;strokeColor=#FFFFFF;fontColor=#FFFFFF;" parent="1" vertex="1">
          <mxGeometry x="440" y="320" width="40" height="40" as="geometry" />
        </mxCell>
        <mxCell id="tzBdefzeKCWXPKmRNhvX-135" value="(7,5)" style="rounded=0;whiteSpace=wrap;html=1;fillColor=#000000;strokeColor=#FFFFFF;fontColor=#FFFFFF;" parent="1" vertex="1">
          <mxGeometry x="480" y="320" width="40" height="40" as="geometry" />
        </mxCell>
        <mxCell id="tzBdefzeKCWXPKmRNhvX-136" value="(7,6)" style="rounded=0;whiteSpace=wrap;html=1;fillColor=#000000;strokeColor=#FFFFFF;fontColor=#FFFFFF;" parent="1" vertex="1">
          <mxGeometry x="520" y="320" width="40" height="40" as="geometry" />
        </mxCell>
        <mxCell id="tzBdefzeKCWXPKmRNhvX-137" value="(7,7)" style="rounded=0;whiteSpace=wrap;html=1;fillColor=#000000;strokeColor=#FFFFFF;fontColor=#FFFFFF;" parent="1" vertex="1">
          <mxGeometry x="560" y="320" width="40" height="40" as="geometry" />
        </mxCell>
        <mxCell id="tzBdefzeKCWXPKmRNhvX-138" value="(7,8)" style="rounded=0;whiteSpace=wrap;html=1;fillColor=#000000;strokeColor=#FFFFFF;fontColor=#FFFFFF;" parent="1" vertex="1">
          <mxGeometry x="600" y="320" width="40" height="40" as="geometry" />
        </mxCell>
        <mxCell id="tzBdefzeKCWXPKmRNhvX-139" value="(8,1)" style="rounded=0;whiteSpace=wrap;html=1;fillColor=#000000;strokeColor=#FFFFFF;fontColor=#FFFFFF;" parent="1" vertex="1">
          <mxGeometry x="320" y="360" width="40" height="40" as="geometry" />
        </mxCell>
        <mxCell id="tzBdefzeKCWXPKmRNhvX-140" value="(8,2)" style="rounded=0;whiteSpace=wrap;html=1;fillColor=#FF0080;strokeColor=#FFFFFF;fontColor=#FFFFFF;" parent="1" vertex="1">
          <mxGeometry x="360" y="360" width="40" height="40" as="geometry" />
        </mxCell>
        <mxCell id="tzBdefzeKCWXPKmRNhvX-141" value="(8,3)" style="rounded=0;whiteSpace=wrap;html=1;fillColor=#000000;strokeColor=#FFFFFF;fontColor=#FFFFFF;" parent="1" vertex="1">
          <mxGeometry x="400" y="360" width="40" height="40" as="geometry" />
        </mxCell>
        <mxCell id="tzBdefzeKCWXPKmRNhvX-142" value="(8,4)" style="rounded=0;whiteSpace=wrap;html=1;fillColor=#FF0080;strokeColor=#FFFFFF;fontColor=#FFFFFF;" parent="1" vertex="1">
          <mxGeometry x="440" y="360" width="40" height="40" as="geometry" />
        </mxCell>
        <mxCell id="tzBdefzeKCWXPKmRNhvX-143" value="(8,5)" style="rounded=0;whiteSpace=wrap;html=1;fillColor=#000000;strokeColor=#FFFFFF;fontColor=#FFFFFF;" parent="1" vertex="1">
          <mxGeometry x="480" y="360" width="40" height="40" as="geometry" />
        </mxCell>
        <mxCell id="tzBdefzeKCWXPKmRNhvX-144" value="(8,6)" style="rounded=0;whiteSpace=wrap;html=1;fillColor=#FF0080;strokeColor=#FFFFFF;fontColor=#FFFFFF;" parent="1" vertex="1">
          <mxGeometry x="520" y="360" width="40" height="40" as="geometry" />
        </mxCell>
        <mxCell id="tzBdefzeKCWXPKmRNhvX-145" value="(8,7)" style="rounded=0;whiteSpace=wrap;html=1;fillColor=#000000;strokeColor=#FFFFFF;fontColor=#FFFFFF;" parent="1" vertex="1">
          <mxGeometry x="560" y="360" width="40" height="40" as="geometry" />
        </mxCell>
        <mxCell id="tzBdefzeKCWXPKmRNhvX-146" value="(8,8)" style="rounded=0;whiteSpace=wrap;html=1;fillColor=#FF0080;strokeColor=#FFFFFF;fontColor=#FFFFFF;" parent="1" vertex="1">
          <mxGeometry x="600" y="360" width="40" height="40" as="geometry" />
        </mxCell>
        <mxCell id="tzBdefzeKCWXPKmRNhvX-147" value="" style="endArrow=classic;html=1;rounded=0;exitX=0;exitY=0.5;exitDx=0;exitDy=0;entryX=0;entryY=0.5;entryDx=0;entryDy=0;strokeColor=#FFFFFF;dashed=1;strokeWidth=2;" parent="1" source="tzBdefzeKCWXPKmRNhvX-3" target="tzBdefzeKCWXPKmRNhvX-92" edge="1">
          <mxGeometry width="50" height="50" relative="1" as="geometry">
            <mxPoint x="120" y="110" as="sourcePoint" />
            <mxPoint x="450" y="280" as="targetPoint" />
          </mxGeometry>
        </mxCell>
        <mxCell id="tzBdefzeKCWXPKmRNhvX-148" value="" style="endArrow=classic;html=1;rounded=0;exitX=0;exitY=0.5;exitDx=0;exitDy=0;entryX=0;entryY=0.5;entryDx=0;entryDy=0;strokeColor=#FFFFFF;dashed=1;strokeWidth=2;" parent="1" source="tzBdefzeKCWXPKmRNhvX-9" target="tzBdefzeKCWXPKmRNhvX-108" edge="1">
          <mxGeometry width="50" height="50" relative="1" as="geometry">
            <mxPoint x="130" y="110" as="sourcePoint" />
            <mxPoint x="370" y="150" as="targetPoint" />
          </mxGeometry>
        </mxCell>
        <mxCell id="tzBdefzeKCWXPKmRNhvX-149" value="" style="endArrow=classic;html=1;rounded=0;exitX=0;exitY=0.5;exitDx=0;exitDy=0;entryX=0;entryY=0.5;entryDx=0;entryDy=0;strokeColor=#FFFFFF;dashed=1;strokeWidth=2;" parent="1" source="tzBdefzeKCWXPKmRNhvX-13" target="tzBdefzeKCWXPKmRNhvX-124" edge="1">
          <mxGeometry width="50" height="50" relative="1" as="geometry">
            <mxPoint x="130" y="150" as="sourcePoint" />
            <mxPoint x="370" y="230" as="targetPoint" />
          </mxGeometry>
        </mxCell>
        <mxCell id="tzBdefzeKCWXPKmRNhvX-150" value="" style="endArrow=classic;html=1;rounded=0;exitX=0;exitY=0.5;exitDx=0;exitDy=0;entryX=1;entryY=0.5;entryDx=0;entryDy=0;strokeColor=#FFFFFF;dashed=1;strokeWidth=2;" parent="1" source="tzBdefzeKCWXPKmRNhvX-17" target="tzBdefzeKCWXPKmRNhvX-139" edge="1">
          <mxGeometry width="50" height="50" relative="1" as="geometry">
            <mxPoint x="130" y="190" as="sourcePoint" />
            <mxPoint x="370" y="310" as="targetPoint" />
          </mxGeometry>
        </mxCell>
        <mxCell id="oxjdFq19VQg15_VCp978-1" value="(1,1)" style="rounded=0;whiteSpace=wrap;html=1;fillColor=#FF3333;strokeColor=#FFFFFF;fontColor=#FFFFFF;" vertex="1" parent="1">
          <mxGeometry x="80" y="480" width="40" height="40" as="geometry" />
        </mxCell>
        <mxCell id="oxjdFq19VQg15_VCp978-2" value="(1,2)" style="rounded=0;whiteSpace=wrap;html=1;fillColor=#FF3333;strokeColor=#FFFFFF;fontColor=#FFFFFF;" vertex="1" parent="1">
          <mxGeometry x="120" y="480" width="40" height="40" as="geometry" />
        </mxCell>
        <mxCell id="oxjdFq19VQg15_VCp978-3" value="(1,3)" style="rounded=0;whiteSpace=wrap;html=1;fillColor=#FF3333;strokeColor=#FFFFFF;fontColor=#FFFFFF;" vertex="1" parent="1">
          <mxGeometry x="160" y="480" width="40" height="40" as="geometry" />
        </mxCell>
        <mxCell id="oxjdFq19VQg15_VCp978-4" value="(1,4)" style="rounded=0;whiteSpace=wrap;html=1;fillColor=#FF3333;strokeColor=#FFFFFF;fontColor=#FFFFFF;" vertex="1" parent="1">
          <mxGeometry x="200" y="480" width="40" height="40" as="geometry" />
        </mxCell>
        <mxCell id="oxjdFq19VQg15_VCp978-5" value="(2,1)" style="rounded=0;whiteSpace=wrap;html=1;fillColor=#009900;strokeColor=#FFFFFF;fontColor=#FFFFFF;" vertex="1" parent="1">
          <mxGeometry x="80" y="520" width="40" height="40" as="geometry" />
        </mxCell>
        <mxCell id="oxjdFq19VQg15_VCp978-6" value="(2,2)" style="rounded=0;whiteSpace=wrap;html=1;fillColor=#009900;strokeColor=#FFFFFF;fontColor=#FFFFFF;" vertex="1" parent="1">
          <mxGeometry x="120" y="520" width="40" height="40" as="geometry" />
        </mxCell>
        <mxCell id="oxjdFq19VQg15_VCp978-7" value="(2,3)" style="rounded=0;whiteSpace=wrap;html=1;fillColor=#009900;strokeColor=#FFFFFF;fontColor=#FFFFFF;" vertex="1" parent="1">
          <mxGeometry x="160" y="520" width="40" height="40" as="geometry" />
        </mxCell>
        <mxCell id="oxjdFq19VQg15_VCp978-8" value="(2,4)" style="rounded=0;whiteSpace=wrap;html=1;fillColor=#009900;strokeColor=#FFFFFF;fontColor=#FFFFFF;" vertex="1" parent="1">
          <mxGeometry x="200" y="520" width="40" height="40" as="geometry" />
        </mxCell>
        <mxCell id="oxjdFq19VQg15_VCp978-9" value="(3,1)" style="rounded=0;whiteSpace=wrap;html=1;fillColor=#007FFF;strokeColor=#FFFFFF;fontColor=#FFFFFF;" vertex="1" parent="1">
          <mxGeometry x="80" y="560" width="40" height="40" as="geometry" />
        </mxCell>
        <mxCell id="oxjdFq19VQg15_VCp978-10" value="(3,2)" style="rounded=0;whiteSpace=wrap;html=1;fillColor=#007FFF;strokeColor=#FFFFFF;fontColor=#FFFFFF;" vertex="1" parent="1">
          <mxGeometry x="120" y="560" width="40" height="40" as="geometry" />
        </mxCell>
        <mxCell id="oxjdFq19VQg15_VCp978-11" value="(3,3)" style="rounded=0;whiteSpace=wrap;html=1;fillColor=#007FFF;strokeColor=#FFFFFF;fontColor=#FFFFFF;" vertex="1" parent="1">
          <mxGeometry x="160" y="560" width="40" height="40" as="geometry" />
        </mxCell>
        <mxCell id="oxjdFq19VQg15_VCp978-12" value="(3,4)" style="rounded=0;whiteSpace=wrap;html=1;fillColor=#007FFF;strokeColor=#FFFFFF;fontColor=#FFFFFF;" vertex="1" parent="1">
          <mxGeometry x="200" y="560" width="40" height="40" as="geometry" />
        </mxCell>
        <mxCell id="oxjdFq19VQg15_VCp978-13" value="(4,1)" style="rounded=0;whiteSpace=wrap;html=1;fillColor=#FF0080;strokeColor=#FFFFFF;fontColor=#FFFFFF;" vertex="1" parent="1">
          <mxGeometry x="80" y="600" width="40" height="40" as="geometry" />
        </mxCell>
        <mxCell id="oxjdFq19VQg15_VCp978-14" value="(4,2)" style="rounded=0;whiteSpace=wrap;html=1;fillColor=#FF0080;strokeColor=#FFFFFF;fontColor=#FFFFFF;" vertex="1" parent="1">
          <mxGeometry x="120" y="600" width="40" height="40" as="geometry" />
        </mxCell>
        <mxCell id="oxjdFq19VQg15_VCp978-15" value="(4,3)" style="rounded=0;whiteSpace=wrap;html=1;fillColor=#FF0080;strokeColor=#FFFFFF;fontColor=#FFFFFF;" vertex="1" parent="1">
          <mxGeometry x="160" y="600" width="40" height="40" as="geometry" />
        </mxCell>
        <mxCell id="oxjdFq19VQg15_VCp978-16" value="(4,4)" style="rounded=0;whiteSpace=wrap;html=1;fillColor=#FF0080;strokeColor=#FFFFFF;fontColor=#FFFFFF;" vertex="1" parent="1">
          <mxGeometry x="200" y="600" width="40" height="40" as="geometry" />
        </mxCell>
        <mxCell id="oxjdFq19VQg15_VCp978-17" value="(1,1)" style="rounded=0;whiteSpace=wrap;html=1;fillColor=#FF3333;strokeColor=#FFFFFF;fontColor=#FFFFFF;" vertex="1" parent="1">
          <mxGeometry x="320" y="480" width="40" height="40" as="geometry" />
        </mxCell>
        <mxCell id="oxjdFq19VQg15_VCp978-18" value="(1,2)" style="rounded=0;whiteSpace=wrap;html=1;fillColor=#FF3333;strokeColor=#FFFFFF;fontColor=#FFFFFF;" vertex="1" parent="1">
          <mxGeometry x="360" y="480" width="40" height="40" as="geometry" />
        </mxCell>
        <mxCell id="oxjdFq19VQg15_VCp978-19" value="(1,3)" style="rounded=0;whiteSpace=wrap;html=1;fillColor=#FF3333;strokeColor=#FFFFFF;fontColor=#FFFFFF;" vertex="1" parent="1">
          <mxGeometry x="400" y="480" width="40" height="40" as="geometry" />
        </mxCell>
        <mxCell id="oxjdFq19VQg15_VCp978-20" value="(1,4)" style="rounded=0;whiteSpace=wrap;html=1;fillColor=#FF3333;strokeColor=#FFFFFF;fontColor=#FFFFFF;" vertex="1" parent="1">
          <mxGeometry x="440" y="480" width="40" height="40" as="geometry" />
        </mxCell>
        <mxCell id="oxjdFq19VQg15_VCp978-21" value="(1,5)" style="rounded=0;whiteSpace=wrap;html=1;fillColor=#FF3333;strokeColor=#FFFFFF;fontColor=#FFFFFF;" vertex="1" parent="1">
          <mxGeometry x="480" y="480" width="40" height="40" as="geometry" />
        </mxCell>
        <mxCell id="oxjdFq19VQg15_VCp978-22" value="(1,6)" style="rounded=0;whiteSpace=wrap;html=1;fillColor=#FF3333;strokeColor=#FFFFFF;fontColor=#FFFFFF;" vertex="1" parent="1">
          <mxGeometry x="520" y="480" width="40" height="40" as="geometry" />
        </mxCell>
        <mxCell id="oxjdFq19VQg15_VCp978-23" value="(1,7)" style="rounded=0;whiteSpace=wrap;html=1;fillColor=#FF3333;strokeColor=#FFFFFF;fontColor=#FFFFFF;" vertex="1" parent="1">
          <mxGeometry x="560" y="480" width="40" height="40" as="geometry" />
        </mxCell>
        <mxCell id="oxjdFq19VQg15_VCp978-24" value="(1,8)" style="rounded=0;whiteSpace=wrap;html=1;fillColor=#FF3333;strokeColor=#FFFFFF;fontColor=#FFFFFF;" vertex="1" parent="1">
          <mxGeometry x="600" y="480" width="40" height="40" as="geometry" />
        </mxCell>
        <mxCell id="oxjdFq19VQg15_VCp978-25" value="(2,1)" style="rounded=0;whiteSpace=wrap;html=1;fillColor=#FF3333;strokeColor=#FFFFFF;fontColor=#FFFFFF;" vertex="1" parent="1">
          <mxGeometry x="320" y="520" width="40" height="40" as="geometry" />
        </mxCell>
        <mxCell id="oxjdFq19VQg15_VCp978-26" value="(2,2)" style="rounded=0;whiteSpace=wrap;html=1;fillColor=#FF3333;strokeColor=#FFFFFF;fontColor=#FFFFFF;" vertex="1" parent="1">
          <mxGeometry x="360" y="520" width="40" height="40" as="geometry" />
        </mxCell>
        <mxCell id="oxjdFq19VQg15_VCp978-27" value="(2,3)" style="rounded=0;whiteSpace=wrap;html=1;fillColor=#FF3333;strokeColor=#FFFFFF;fontColor=#FFFFFF;" vertex="1" parent="1">
          <mxGeometry x="400" y="520" width="40" height="40" as="geometry" />
        </mxCell>
        <mxCell id="oxjdFq19VQg15_VCp978-28" value="(2,4)" style="rounded=0;whiteSpace=wrap;html=1;fillColor=#FF3333;strokeColor=#FFFFFF;fontColor=#FFFFFF;" vertex="1" parent="1">
          <mxGeometry x="440" y="520" width="40" height="40" as="geometry" />
        </mxCell>
        <mxCell id="oxjdFq19VQg15_VCp978-29" value="(2,5)" style="rounded=0;whiteSpace=wrap;html=1;fillColor=#FF3333;strokeColor=#FFFFFF;fontColor=#FFFFFF;" vertex="1" parent="1">
          <mxGeometry x="480" y="520" width="40" height="40" as="geometry" />
        </mxCell>
        <mxCell id="oxjdFq19VQg15_VCp978-30" value="(2,6)" style="rounded=0;whiteSpace=wrap;html=1;fillColor=#FF3333;strokeColor=#FFFFFF;fontColor=#FFFFFF;" vertex="1" parent="1">
          <mxGeometry x="520" y="520" width="40" height="40" as="geometry" />
        </mxCell>
        <mxCell id="oxjdFq19VQg15_VCp978-31" value="(2,7)" style="rounded=0;whiteSpace=wrap;html=1;fillColor=#FF3333;strokeColor=#FFFFFF;fontColor=#FFFFFF;" vertex="1" parent="1">
          <mxGeometry x="560" y="520" width="40" height="40" as="geometry" />
        </mxCell>
        <mxCell id="oxjdFq19VQg15_VCp978-32" value="(2,8)" style="rounded=0;whiteSpace=wrap;html=1;fillColor=#FF3333;strokeColor=#FFFFFF;fontColor=#FFFFFF;" vertex="1" parent="1">
          <mxGeometry x="600" y="520" width="40" height="40" as="geometry" />
        </mxCell>
        <mxCell id="oxjdFq19VQg15_VCp978-33" value="(3,1)" style="rounded=0;whiteSpace=wrap;html=1;fillColor=#4D9900;strokeColor=#FFFFFF;fontColor=#FFFFFF;" vertex="1" parent="1">
          <mxGeometry x="320" y="560" width="40" height="40" as="geometry" />
        </mxCell>
        <mxCell id="oxjdFq19VQg15_VCp978-34" value="(3,2)" style="rounded=0;whiteSpace=wrap;html=1;fillColor=#4D9900;strokeColor=#FFFFFF;fontColor=#FFFFFF;" vertex="1" parent="1">
          <mxGeometry x="360" y="560" width="40" height="40" as="geometry" />
        </mxCell>
        <mxCell id="oxjdFq19VQg15_VCp978-35" value="(3,3)" style="rounded=0;whiteSpace=wrap;html=1;fillColor=#4D9900;strokeColor=#FFFFFF;fontColor=#FFFFFF;" vertex="1" parent="1">
          <mxGeometry x="400" y="560" width="40" height="40" as="geometry" />
        </mxCell>
        <mxCell id="oxjdFq19VQg15_VCp978-36" value="(3,4)" style="rounded=0;whiteSpace=wrap;html=1;fillColor=#4D9900;strokeColor=#FFFFFF;fontColor=#FFFFFF;" vertex="1" parent="1">
          <mxGeometry x="440" y="560" width="40" height="40" as="geometry" />
        </mxCell>
        <mxCell id="oxjdFq19VQg15_VCp978-37" value="(3,5)" style="rounded=0;whiteSpace=wrap;html=1;fillColor=#4D9900;strokeColor=#FFFFFF;fontColor=#FFFFFF;" vertex="1" parent="1">
          <mxGeometry x="480" y="560" width="40" height="40" as="geometry" />
        </mxCell>
        <mxCell id="oxjdFq19VQg15_VCp978-38" value="(3,6)" style="rounded=0;whiteSpace=wrap;html=1;fillColor=#4D9900;strokeColor=#FFFFFF;fontColor=#FFFFFF;" vertex="1" parent="1">
          <mxGeometry x="520" y="560" width="40" height="40" as="geometry" />
        </mxCell>
        <mxCell id="oxjdFq19VQg15_VCp978-39" value="(3,7)" style="rounded=0;whiteSpace=wrap;html=1;fillColor=#4D9900;strokeColor=#FFFFFF;fontColor=#FFFFFF;" vertex="1" parent="1">
          <mxGeometry x="560" y="560" width="40" height="40" as="geometry" />
        </mxCell>
        <mxCell id="oxjdFq19VQg15_VCp978-40" value="(3,8)" style="rounded=0;whiteSpace=wrap;html=1;fillColor=#4D9900;strokeColor=#FFFFFF;fontColor=#FFFFFF;" vertex="1" parent="1">
          <mxGeometry x="600" y="560" width="40" height="40" as="geometry" />
        </mxCell>
        <mxCell id="oxjdFq19VQg15_VCp978-41" value="(4,1)" style="rounded=0;whiteSpace=wrap;html=1;fillColor=#4D9900;strokeColor=#FFFFFF;fontColor=#FFFFFF;" vertex="1" parent="1">
          <mxGeometry x="320" y="600" width="40" height="40" as="geometry" />
        </mxCell>
        <mxCell id="oxjdFq19VQg15_VCp978-42" value="(4,2)" style="rounded=0;whiteSpace=wrap;html=1;fillColor=#4D9900;strokeColor=#FFFFFF;fontColor=#FFFFFF;" vertex="1" parent="1">
          <mxGeometry x="360" y="600" width="40" height="40" as="geometry" />
        </mxCell>
        <mxCell id="oxjdFq19VQg15_VCp978-43" value="(4,3)" style="rounded=0;whiteSpace=wrap;html=1;fillColor=#4D9900;strokeColor=#FFFFFF;fontColor=#FFFFFF;" vertex="1" parent="1">
          <mxGeometry x="400" y="600" width="40" height="40" as="geometry" />
        </mxCell>
        <mxCell id="oxjdFq19VQg15_VCp978-44" value="(4,4)" style="rounded=0;whiteSpace=wrap;html=1;fillColor=#4D9900;strokeColor=#FFFFFF;fontColor=#FFFFFF;" vertex="1" parent="1">
          <mxGeometry x="440" y="600" width="40" height="40" as="geometry" />
        </mxCell>
        <mxCell id="oxjdFq19VQg15_VCp978-45" value="(4,5)" style="rounded=0;whiteSpace=wrap;html=1;fillColor=#4D9900;strokeColor=#FFFFFF;fontColor=#FFFFFF;" vertex="1" parent="1">
          <mxGeometry x="480" y="600" width="40" height="40" as="geometry" />
        </mxCell>
        <mxCell id="oxjdFq19VQg15_VCp978-46" value="(4,6)" style="rounded=0;whiteSpace=wrap;html=1;fillColor=#4D9900;strokeColor=#FFFFFF;fontColor=#FFFFFF;" vertex="1" parent="1">
          <mxGeometry x="520" y="600" width="40" height="40" as="geometry" />
        </mxCell>
        <mxCell id="oxjdFq19VQg15_VCp978-47" value="(4,7)" style="rounded=0;whiteSpace=wrap;html=1;fillColor=#4D9900;strokeColor=#FFFFFF;fontColor=#FFFFFF;" vertex="1" parent="1">
          <mxGeometry x="560" y="600" width="40" height="40" as="geometry" />
        </mxCell>
        <mxCell id="oxjdFq19VQg15_VCp978-48" value="(4,8)" style="rounded=0;whiteSpace=wrap;html=1;fillColor=#4D9900;strokeColor=#FFFFFF;fontColor=#FFFFFF;" vertex="1" parent="1">
          <mxGeometry x="600" y="600" width="40" height="40" as="geometry" />
        </mxCell>
        <mxCell id="oxjdFq19VQg15_VCp978-49" value="(5,1)" style="rounded=0;whiteSpace=wrap;html=1;fillColor=#007FFF;strokeColor=#FFFFFF;fontColor=#FFFFFF;" vertex="1" parent="1">
          <mxGeometry x="320" y="640" width="40" height="40" as="geometry" />
        </mxCell>
        <mxCell id="oxjdFq19VQg15_VCp978-50" value="(5,2)" style="rounded=0;whiteSpace=wrap;html=1;fillColor=#007FFF;strokeColor=#FFFFFF;fontColor=#FFFFFF;" vertex="1" parent="1">
          <mxGeometry x="360" y="640" width="40" height="40" as="geometry" />
        </mxCell>
        <mxCell id="oxjdFq19VQg15_VCp978-51" value="(5,3)" style="rounded=0;whiteSpace=wrap;html=1;fillColor=#007FFF;strokeColor=#FFFFFF;fontColor=#FFFFFF;" vertex="1" parent="1">
          <mxGeometry x="400" y="640" width="40" height="40" as="geometry" />
        </mxCell>
        <mxCell id="oxjdFq19VQg15_VCp978-52" value="(5,4)" style="rounded=0;whiteSpace=wrap;html=1;fillColor=#007FFF;strokeColor=#FFFFFF;fontColor=#FFFFFF;" vertex="1" parent="1">
          <mxGeometry x="440" y="640" width="40" height="40" as="geometry" />
        </mxCell>
        <mxCell id="oxjdFq19VQg15_VCp978-53" value="(5,5)" style="rounded=0;whiteSpace=wrap;html=1;fillColor=#007FFF;strokeColor=#FFFFFF;fontColor=#FFFFFF;" vertex="1" parent="1">
          <mxGeometry x="480" y="640" width="40" height="40" as="geometry" />
        </mxCell>
        <mxCell id="oxjdFq19VQg15_VCp978-54" value="(5,6)" style="rounded=0;whiteSpace=wrap;html=1;fillColor=#007FFF;strokeColor=#FFFFFF;fontColor=#FFFFFF;" vertex="1" parent="1">
          <mxGeometry x="520" y="640" width="40" height="40" as="geometry" />
        </mxCell>
        <mxCell id="oxjdFq19VQg15_VCp978-55" value="(5,7)" style="rounded=0;whiteSpace=wrap;html=1;fillColor=#007FFF;strokeColor=#FFFFFF;fontColor=#FFFFFF;" vertex="1" parent="1">
          <mxGeometry x="560" y="640" width="40" height="40" as="geometry" />
        </mxCell>
        <mxCell id="oxjdFq19VQg15_VCp978-56" value="(5,8)" style="rounded=0;whiteSpace=wrap;html=1;fillColor=#007FFF;strokeColor=#FFFFFF;fontColor=#FFFFFF;" vertex="1" parent="1">
          <mxGeometry x="600" y="640" width="40" height="40" as="geometry" />
        </mxCell>
        <mxCell id="oxjdFq19VQg15_VCp978-57" value="(6,1)" style="rounded=0;whiteSpace=wrap;html=1;fillColor=#007FFF;strokeColor=#FFFFFF;fontColor=#FFFFFF;" vertex="1" parent="1">
          <mxGeometry x="320" y="680" width="40" height="40" as="geometry" />
        </mxCell>
        <mxCell id="oxjdFq19VQg15_VCp978-58" value="(6,2)" style="rounded=0;whiteSpace=wrap;html=1;fillColor=#007FFF;strokeColor=#FFFFFF;fontColor=#FFFFFF;" vertex="1" parent="1">
          <mxGeometry x="360" y="680" width="40" height="40" as="geometry" />
        </mxCell>
        <mxCell id="oxjdFq19VQg15_VCp978-59" value="(6,3)" style="rounded=0;whiteSpace=wrap;html=1;fillColor=#007FFF;strokeColor=#FFFFFF;fontColor=#FFFFFF;" vertex="1" parent="1">
          <mxGeometry x="400" y="680" width="40" height="40" as="geometry" />
        </mxCell>
        <mxCell id="oxjdFq19VQg15_VCp978-60" value="(6,4)" style="rounded=0;whiteSpace=wrap;html=1;fillColor=#007FFF;strokeColor=#FFFFFF;fontColor=#FFFFFF;" vertex="1" parent="1">
          <mxGeometry x="440" y="680" width="40" height="40" as="geometry" />
        </mxCell>
        <mxCell id="oxjdFq19VQg15_VCp978-61" value="(6,5)" style="rounded=0;whiteSpace=wrap;html=1;fillColor=#007FFF;strokeColor=#FFFFFF;fontColor=#FFFFFF;" vertex="1" parent="1">
          <mxGeometry x="480" y="680" width="40" height="40" as="geometry" />
        </mxCell>
        <mxCell id="oxjdFq19VQg15_VCp978-62" value="(6,6)" style="rounded=0;whiteSpace=wrap;html=1;fillColor=#007FFF;strokeColor=#FFFFFF;fontColor=#FFFFFF;" vertex="1" parent="1">
          <mxGeometry x="520" y="680" width="40" height="40" as="geometry" />
        </mxCell>
        <mxCell id="oxjdFq19VQg15_VCp978-63" value="(6,7)" style="rounded=0;whiteSpace=wrap;html=1;fillColor=#007FFF;strokeColor=#FFFFFF;fontColor=#FFFFFF;" vertex="1" parent="1">
          <mxGeometry x="560" y="680" width="40" height="40" as="geometry" />
        </mxCell>
        <mxCell id="oxjdFq19VQg15_VCp978-64" value="(6,8)" style="rounded=0;whiteSpace=wrap;html=1;fillColor=#007FFF;strokeColor=#FFFFFF;fontColor=#FFFFFF;" vertex="1" parent="1">
          <mxGeometry x="600" y="680" width="40" height="40" as="geometry" />
        </mxCell>
        <mxCell id="oxjdFq19VQg15_VCp978-65" value="(7,1)" style="rounded=0;whiteSpace=wrap;html=1;fillColor=#FF0080;strokeColor=#FFFFFF;fontColor=#FFFFFF;" vertex="1" parent="1">
          <mxGeometry x="320" y="720" width="40" height="40" as="geometry" />
        </mxCell>
        <mxCell id="oxjdFq19VQg15_VCp978-66" value="(7,2)" style="rounded=0;whiteSpace=wrap;html=1;fillColor=#FF0080;strokeColor=#FFFFFF;fontColor=#FFFFFF;" vertex="1" parent="1">
          <mxGeometry x="360" y="720" width="40" height="40" as="geometry" />
        </mxCell>
        <mxCell id="oxjdFq19VQg15_VCp978-67" value="(7,3)" style="rounded=0;whiteSpace=wrap;html=1;fillColor=#FF0080;strokeColor=#FFFFFF;fontColor=#FFFFFF;" vertex="1" parent="1">
          <mxGeometry x="400" y="720" width="40" height="40" as="geometry" />
        </mxCell>
        <mxCell id="oxjdFq19VQg15_VCp978-68" value="(7,4)" style="rounded=0;whiteSpace=wrap;html=1;fillColor=#FF0080;strokeColor=#FFFFFF;fontColor=#FFFFFF;" vertex="1" parent="1">
          <mxGeometry x="440" y="720" width="40" height="40" as="geometry" />
        </mxCell>
        <mxCell id="oxjdFq19VQg15_VCp978-69" value="(7,5)" style="rounded=0;whiteSpace=wrap;html=1;fillColor=#FF0080;strokeColor=#FFFFFF;fontColor=#FFFFFF;" vertex="1" parent="1">
          <mxGeometry x="480" y="720" width="40" height="40" as="geometry" />
        </mxCell>
        <mxCell id="oxjdFq19VQg15_VCp978-70" value="(7,6)" style="rounded=0;whiteSpace=wrap;html=1;fillColor=#FF0080;strokeColor=#FFFFFF;fontColor=#FFFFFF;" vertex="1" parent="1">
          <mxGeometry x="520" y="720" width="40" height="40" as="geometry" />
        </mxCell>
        <mxCell id="oxjdFq19VQg15_VCp978-71" value="(7,7)" style="rounded=0;whiteSpace=wrap;html=1;fillColor=#FF0080;strokeColor=#FFFFFF;fontColor=#FFFFFF;" vertex="1" parent="1">
          <mxGeometry x="560" y="720" width="40" height="40" as="geometry" />
        </mxCell>
        <mxCell id="oxjdFq19VQg15_VCp978-72" value="(7,8)" style="rounded=0;whiteSpace=wrap;html=1;fillColor=#FF0080;strokeColor=#FFFFFF;fontColor=#FFFFFF;" vertex="1" parent="1">
          <mxGeometry x="600" y="720" width="40" height="40" as="geometry" />
        </mxCell>
        <mxCell id="oxjdFq19VQg15_VCp978-73" value="(8,1)" style="rounded=0;whiteSpace=wrap;html=1;fillColor=#FF0080;strokeColor=#FFFFFF;fontColor=#FFFFFF;" vertex="1" parent="1">
          <mxGeometry x="320" y="760" width="40" height="40" as="geometry" />
        </mxCell>
        <mxCell id="oxjdFq19VQg15_VCp978-74" value="(8,2)" style="rounded=0;whiteSpace=wrap;html=1;fillColor=#FF0080;strokeColor=#FFFFFF;fontColor=#FFFFFF;" vertex="1" parent="1">
          <mxGeometry x="360" y="760" width="40" height="40" as="geometry" />
        </mxCell>
        <mxCell id="oxjdFq19VQg15_VCp978-75" value="(8,3)" style="rounded=0;whiteSpace=wrap;html=1;fillColor=#FF0080;strokeColor=#FFFFFF;fontColor=#FFFFFF;" vertex="1" parent="1">
          <mxGeometry x="400" y="760" width="40" height="40" as="geometry" />
        </mxCell>
        <mxCell id="oxjdFq19VQg15_VCp978-76" value="(8,4)" style="rounded=0;whiteSpace=wrap;html=1;fillColor=#FF0080;strokeColor=#FFFFFF;fontColor=#FFFFFF;" vertex="1" parent="1">
          <mxGeometry x="440" y="760" width="40" height="40" as="geometry" />
        </mxCell>
        <mxCell id="oxjdFq19VQg15_VCp978-77" value="(8,5)" style="rounded=0;whiteSpace=wrap;html=1;fillColor=#FF0080;strokeColor=#FFFFFF;fontColor=#FFFFFF;" vertex="1" parent="1">
          <mxGeometry x="480" y="760" width="40" height="40" as="geometry" />
        </mxCell>
        <mxCell id="oxjdFq19VQg15_VCp978-78" value="(8,6)" style="rounded=0;whiteSpace=wrap;html=1;fillColor=#FF0080;strokeColor=#FFFFFF;fontColor=#FFFFFF;" vertex="1" parent="1">
          <mxGeometry x="520" y="760" width="40" height="40" as="geometry" />
        </mxCell>
        <mxCell id="oxjdFq19VQg15_VCp978-79" value="(8,7)" style="rounded=0;whiteSpace=wrap;html=1;fillColor=#FF0080;strokeColor=#FFFFFF;fontColor=#FFFFFF;" vertex="1" parent="1">
          <mxGeometry x="560" y="760" width="40" height="40" as="geometry" />
        </mxCell>
        <mxCell id="oxjdFq19VQg15_VCp978-80" value="(8,8)" style="rounded=0;whiteSpace=wrap;html=1;fillColor=#FF0080;strokeColor=#FFFFFF;fontColor=#FFFFFF;" vertex="1" parent="1">
          <mxGeometry x="600" y="760" width="40" height="40" as="geometry" />
        </mxCell>
        <mxCell id="oxjdFq19VQg15_VCp978-84" value="" style="endArrow=classic;html=1;rounded=0;exitX=0;exitY=0.5;exitDx=0;exitDy=0;entryX=0;entryY=0.5;entryDx=0;entryDy=0;strokeColor=#FFFFFF;dashed=1;strokeWidth=2;" edge="1" parent="1" source="oxjdFq19VQg15_VCp978-17" target="oxjdFq19VQg15_VCp978-2">
          <mxGeometry width="50" height="50" relative="1" as="geometry">
            <mxPoint x="130" y="590" as="sourcePoint" />
            <mxPoint x="370" y="710" as="targetPoint" />
          </mxGeometry>
        </mxCell>
        <mxCell id="oxjdFq19VQg15_VCp978-85" value="" style="endArrow=classic;html=1;rounded=0;exitX=0;exitY=0.5;exitDx=0;exitDy=0;entryX=0;entryY=0.75;entryDx=0;entryDy=0;strokeColor=#FFFFFF;dashed=1;strokeWidth=2;" edge="1" parent="1" source="oxjdFq19VQg15_VCp978-25" target="oxjdFq19VQg15_VCp978-2">
          <mxGeometry width="50" height="50" relative="1" as="geometry">
            <mxPoint x="330" y="510" as="sourcePoint" />
            <mxPoint x="130" y="510" as="targetPoint" />
          </mxGeometry>
        </mxCell>
        <mxCell id="oxjdFq19VQg15_VCp978-86" value="(0.5, 0.5)" style="text;html=1;align=center;verticalAlign=middle;whiteSpace=wrap;rounded=0;fontColor=#FFFFFF;" vertex="1" parent="1">
          <mxGeometry x="250" y="470" width="60" height="30" as="geometry" />
        </mxCell>
        <mxCell id="oxjdFq19VQg15_VCp978-87" value="(1, 0.5)" style="text;html=1;align=center;verticalAlign=middle;whiteSpace=wrap;rounded=0;fontColor=#FFFFFF;" vertex="1" parent="1">
          <mxGeometry x="250" y="540" width="60" height="30" as="geometry" />
        </mxCell>
      </root>
    </mxGraphModel>
  </diagram>
</mxfile>
